<svg aria-hidden="true" style="width:0;height:0;position:absolute;overflow:hidden" xmlns="http://www.w3.org/2000/svg"><defs><symbol id="icon-search" viewBox="0 0 32 32"><path d="m31.597 29.708-9.181-9.188a12.404 12.404 0 0 0 2.899-7.975c0-6.912-5.673-12.532-12.65-12.532S.001 5.64.001 12.552s5.673 12.532 12.65 12.532c2.964 0 5.692-1.017 7.857-2.715l9.214 9.214c.538.538 1.338.538 1.876 0s.538-1.338 0-1.876zM2.689 12.552c0-5.43 4.473-9.844 9.962-9.844s9.962 4.414 9.962 9.844-4.473 9.844-9.962 9.844-9.962-4.42-9.962-9.844z"/></symbol></defs></svg>