<svg aria-hidden="true" style="position: absolute; width: 0; height: 0; overflow: hidden;" version="1.1" xmlns="http://www.w3.org/2000/svg" xmlns:xlink="http://www.w3.org/1999/xlink">
<defs>
<symbol id="icon-search" viewBox="0 0 32 32">
<path d="M31.597 29.708l-9.181-9.188c1.81-2.171 2.899-4.945 2.899-7.975 0-6.912-5.673-12.532-12.65-12.532s-12.664 5.627-12.664 12.539 5.673 12.532 12.65 12.532c2.964 0 5.692-1.017 7.857-2.715l9.214 9.214c0.538 0.538 1.338 0.538 1.876 0s0.538-1.338 0-1.876zM2.689 12.552c0-5.43 4.473-9.844 9.962-9.844s9.962 4.414 9.962 9.844-4.473 9.844-9.962 9.844-9.962-4.42-9.962-9.844z"></path>
</symbol>
</defs>
</svg>
